<svg xmlns="http://www.w3.org/2000/svg" xmlns:xlink="http://www.w3.org/1999/xlink" id="Layer_1" x="0px" y="0px" viewBox="0 0 806.9 655.1" style="enable-background:new 0 0 806.9 655.1;" xml:space="preserve"><style type="text/css">	.st0{fill:#FFFFFF;}</style><path class="st0" d="M777.7,104.1c-5.2-3.3-127.2-78-145.2-87.9c-3.6-2.1-7.6-3.3-11.8-3.3c-3.9,0-7.7,1-11,3 c-1.4,0-133,83.5-153.6,94.3c-16.2,8.8-34.4,13.3-52.9,12.9c-16.3,0.3-32.4-3.1-47.2-9.9c-21.1-8-158.8-97.8-158.8-97.8 c-3.5-1.8-7.3-2.8-11.2-2.8c-4.2,0-8.2,1.2-11.8,3.3c-15.6,8.6-114,68.7-143.5,87l-2.2,1.3c-7.8,5.1-12.7,13.7-13.1,23.1 c-0.1,1.2-0.2,2.3-0.2,3.5v264.5c0.1,0.7,0.2,1.3,0.3,2c1.3,9.2,7.1,17.2,15.6,21.1c11.5,5.8,315.5,196.4,356.5,220.2 c4.3,2.4,9.2,3.8,14.1,4v0l0,0h1.6v0c0.2,0,0.4,0,0.6,0c5.3-0.1,10.5-1.5,15.1-4.1c5.2-3,14.5-8.6,26.8-16.1 C510.7,583.2,658,491,731.9,445c24.7-15.3,41.2-25.4,43.8-26.7c8.8-4,14.8-12.4,15.7-22V396V128.9v-0.3 C791.5,118.6,786.3,109.3,777.7,104.1z"></path></svg>