<svg xmlns="http://www.w3.org/2000/svg" xmlns:xlink="http://www.w3.org/1999/xlink" id="Layer_1" x="0px" y="0px" viewBox="0 0 682.7 788.5" style="enable-background:new 0 0 682.7 788.5;" xml:space="preserve"><style type="text/css">	.st0{fill:#FFFFFF;}</style><rect x="186.4" y="284.9" class="st0" width="52.3" height="83.9"></rect><rect x="447.8" y="284.9" class="st0" width="52.3" height="83.9"></rect><path class="st0" d="M682.6,760.8l-33.9-573.3c-0.8-13.8-12.2-24.6-26.1-24.6H500.1v-6.1C500.1,70.3,429.8,0,343.3,0 S186.4,70.3,186.4,156.8v58.4h52.3v-52.3h0.2c-0.1-2-0.2-4-0.2-6.1c0-57.6,46.9-104.6,104.6-104.6s104.6,46.9,104.6,104.6 c0,2.1,0,4.1-0.2,6.1H294.5v52.3H598l30.8,521H53.7l28.5-521h51.9v-52.3H57.5c-13.9,0-25.3,10.9-26.1,24.7L0,760.9 c-0.4,7.2,2.2,14.2,7.1,19.4c4.9,5.2,11.8,8.2,19,8.2h630.4c7.2,0,14.1-3,19-8.2C680.5,775,683.1,768,682.6,760.8L682.6,760.8z"></path></svg>