<svg xmlns="http://www.w3.org/2000/svg" xmlns:xlink="http://www.w3.org/1999/xlink" id="Layer_1" x="0px" y="0px" viewBox="0 0 109.6 122.9" style="enable-background:new 0 0 109.6 122.9;" xml:space="preserve"><style type="text/css">	.st0{fill:#FFFFFF;}</style><path class="st0" d="M73.4,89.6c1.1-8.9-4.6-14.5-19.7-19.3C46.4,67.8,42.9,64.5,43,60c0.3-5,4.9-8.6,11.1-8.7 c4.3,0.1,9,1.1,13.6,4.2c0.5,0.3,0.9,0.3,1.2-0.2c0.4-0.7,1.5-2.3,1.8-2.9c0.2-0.4,0.3-0.9-0.3-1.3c-0.9-0.6-3.3-2-4.6-2.5 c-3.6-1.5-7.6-2.4-11.9-2.4c-9,0-16.1,5.7-16.7,13.3c-0.4,5.5,2.3,10,8.2,13.3c1.2,0.7,7.9,3.4,10.6,4.2c8.4,2.6,12.7,7.3,11.7,12.7 c-0.9,4.9-6.1,8.1-13.3,8.2c-5.7-0.2-10.8-2.5-14.8-5.6c-0.1-0.1-0.6-0.5-0.7-0.5c-0.5-0.4-1-0.4-1.4,0.1c-0.2,0.4-1.8,2.6-2.2,3.2 c-0.4,0.5-0.2,0.8,0.2,1.1c1.7,1.4,3.9,2.9,5.4,3.7c4.1,2.1,8.6,3.3,13.4,3.4c3.1,0.2,6.9-0.5,9.8-1.7 C69.4,99.5,72.7,95.1,73.4,89.6L73.4,89.6z M54.8,11.4c-9.8,0-17.7,9.2-18.1,20.7h36.2C72.5,20.6,64.6,11.4,54.8,11.4L54.8,11.4z  M91.9,118.1h-0.4l-74.5,0l0,0c-5.1-0.2-8.8-4.3-9.3-9.4l0-0.9L4.3,34.5l0,0c0-0.1,0-0.1,0-0.2c0-1.2,0.9-2.1,2.1-2.2l0,0h23.5 C30.5,16.9,41.4,4.8,54.8,4.8s24.3,12.1,24.9,27.3h23.4h0c1.2,0,2.2,1,2.2,2.2c0,0,0,0.1,0,0.1l0,0l-3.7,73.6l0,0.6 C101.2,113.8,97,118,91.9,118.1L91.9,118.1z"></path></svg>